# Blender v2.79 (sub 0) OBJ File: ''
# www.blender.org
mtllib ArenaPlane.mtl
o SketchUp_ID11
v -52.794903 0.000000 11.581766
v -52.794903 0.000000 -15.960540
v -54.607906 0.000000 -2.189387
v -47.479435 0.000000 24.414438
v -47.479435 0.000000 -28.793211
v -39.023750 0.000000 35.434101
v -39.023750 0.000000 -39.812874
v -28.004087 0.000000 43.889786
v -28.004087 0.000000 -48.268562
v -15.171413 0.000000 49.205254
v -15.171413 0.000000 -53.584030
v -1.400262 0.000000 51.018261
v -1.400262 0.000000 -55.397034
v 12.370892 0.000000 49.205254
v 12.370892 0.000000 -53.584030
v 25.203560 0.000000 43.889786
v 25.203560 0.000000 -48.268562
v 36.223228 0.000000 35.434101
v 36.223228 0.000000 -39.812874
v 44.678913 0.000000 24.414438
v 44.678913 0.000000 -28.793211
v 49.994381 0.000000 11.581766
v 49.994381 0.000000 -15.960540
v 51.807388 0.000000 -2.189387
v 12.370892 0.000000 49.205254
v -1.400262 -5.947388 51.018261
v 12.370892 -5.947388 49.205254
v -1.400262 0.000000 51.018261
v 25.203560 0.000000 43.889786
v 25.203560 -5.947388 43.889786
v 36.223228 0.000000 35.434101
v 36.223228 -5.947388 35.434101
v 44.678913 -5.947388 24.414438
v 44.678913 0.000000 24.414438
v 49.994381 -5.947388 11.581766
v 49.994381 0.000000 11.581766
v 51.807388 -5.947388 -2.189387
v 51.807388 0.000000 -2.189387
v 49.994381 -5.947388 -15.960540
v 49.994381 0.000000 -15.960540
v 44.678913 -5.947388 -28.793211
v 44.678913 0.000000 -28.793211
v 36.223228 -5.947388 -39.812874
v 36.223228 0.000000 -39.812874
v 25.203560 0.000000 -48.268562
v 25.203560 -5.947388 -48.268562
v 12.370892 0.000000 -53.584030
v 12.370892 -5.947388 -53.584030
v -1.400262 0.000000 -55.397034
v -1.400262 -5.947388 -55.397034
v -15.171413 0.000000 -53.584030
v -15.171413 -5.947388 -53.584030
v -28.004087 0.000000 -48.268562
v -28.004087 -5.947388 -48.268562
v -39.023750 0.000000 -39.812874
v -39.023750 -5.947388 -39.812874
v -47.479435 -5.947388 -28.793211
v -47.479435 0.000000 -28.793211
v -52.794903 -5.947388 -15.960540
v -52.794903 0.000000 -15.960540
v -54.607906 -5.947388 -2.189387
v -54.607906 0.000000 -2.189387
v -52.794903 -5.947388 11.581766
v -52.794903 0.000000 11.581766
v -47.479435 -5.947388 24.414438
v -47.479435 0.000000 24.414438
v -39.023750 -5.947388 35.434101
v -39.023750 0.000000 35.434101
v -28.004087 0.000000 43.889786
v -28.004087 -5.947388 43.889786
v -15.171413 0.000000 49.205254
v -15.171413 -5.947388 49.205254
v -52.794903 -5.947388 -15.960540
v -52.794903 -5.947388 11.581766
v -54.607906 -5.947388 -2.189387
v -47.479435 -5.947388 24.414438
v -47.479435 -5.947388 -28.793211
v -39.023750 -5.947388 35.434101
v -39.023750 -5.947388 -39.812874
v -28.004087 -5.947388 43.889786
v -28.004087 -5.947388 -48.268562
v -15.171413 -5.947388 49.205254
v -15.171413 -5.947388 -53.584030
v -1.400262 -5.947388 51.018261
v -1.400262 -5.947388 -55.397034
v 12.370892 -5.947388 49.205254
v 12.370892 -5.947388 -53.584030
v 25.203560 -5.947388 43.889786
v 25.203560 -5.947388 -48.268562
v 36.223228 -5.947388 35.434101
v 36.223228 -5.947388 -39.812874
v 44.678913 -5.947388 24.414438
v 44.678913 -5.947388 -28.793211
v 49.994381 -5.947388 11.581766
v 49.994381 -5.947388 -15.960540
v 51.807388 -5.947388 -2.189387
vt 0.165036 0.949991
vt 0.371122 0.999926
vt 0.262460 0.982894
vt 0.085490 0.903458
vt 0.483617 0.999926
vt 0.029242 0.846468
vt 0.592280 0.982894
vt 0.000126 0.782903
vt 0.689703 0.949991
vt 0.000126 0.717097
vt 0.769250 0.903458
vt 0.029242 0.653532
vt 0.825497 0.846468
vt 0.085490 0.596542
vt 0.854613 0.782903
vt 0.165036 0.550009
vt 0.854613 0.717097
vt 0.262460 0.517106
vt 0.825497 0.653532
vt 0.371122 0.500074
vt 0.769249 0.596542
vt 0.483617 0.500074
vt 0.689703 0.550009
vt 0.592279 0.517106
vt 0.085490 0.096542
vt 0.000126 0.217097
vt 0.029242 0.153532
vt 0.000126 0.282903
vt 0.165036 0.050009
vt 0.029242 0.346468
vt 0.262460 0.017106
vt 0.085490 0.403458
vt 0.371122 0.000074
vt 0.165036 0.449991
vt 0.483617 0.000074
vt 0.262460 0.482894
vt 0.592279 0.017106
vt 0.371122 0.499926
vt 0.689703 0.050009
vt 0.483617 0.499926
vt 0.769249 0.096542
vt 0.592280 0.482894
vt 0.825497 0.153532
vt 0.689703 0.449991
vt 0.854613 0.217097
vt 0.769250 0.403458
vt 0.854613 0.282903
vt 0.825497 0.346468
vt 0.903033 0.265871
vt 0.854865 0.329436
vt 0.854865 0.265871
vt 0.903033 0.329436
vt 0.903033 0.200065
vt 0.854865 0.200065
vt 0.903033 0.136500
vt 0.854865 0.136500
vt 0.854865 0.079510
vt 0.903033 0.079510
vt 0.854865 0.032977
vt 0.903033 0.032977
vt 0.854865 0.000074
vt 0.903033 0.000074
vt 0.951454 0.032977
vt 0.903286 0.000074
vt 0.951454 0.000074
vt 0.903286 0.032977
vt 0.951454 0.079510
vt 0.903286 0.079510
vt 0.951454 0.136500
vt 0.903286 0.136500
vt 0.903286 0.200065
vt 0.951454 0.200065
vt 0.903286 0.265871
vt 0.951454 0.265871
vt 0.903286 0.329436
vt 0.951454 0.329436
vt 0.903286 0.386426
vt 0.951454 0.386426
vt 0.903286 0.432959
vt 0.951454 0.432959
vt 0.951706 0.057064
vt 0.999874 0.000074
vt 0.999874 0.057064
vt 0.951706 0.000074
vt 0.999874 0.120629
vt 0.951706 0.120629
vt 0.999874 0.186435
vt 0.951706 0.186435
vt 0.999874 0.250000
vt 0.951706 0.250000
vt 0.999874 0.306990
vt 0.951706 0.306990
vt 0.999874 0.353523
vt 0.951706 0.353523
vt 0.999874 0.386426
vt 0.951706 0.386426
vt 0.903033 0.432959
vt 0.854865 0.465862
vt 0.854865 0.432959
vt 0.903033 0.465862
vt 0.903033 0.386426
vt 0.854865 0.386426
vn 0.0000 1.0000 0.0000
vn 0.0000 -1.0000 0.0000
vn 0.2588 0.0000 0.9659
vn 0.0000 0.0000 1.0000
vn 0.5000 0.0000 0.8660
vn 0.7071 0.0000 0.7071
vn 0.8660 0.0000 0.5000
vn 0.9659 0.0000 0.2588
vn 1.0000 0.0000 0.0000
vn 0.9659 0.0000 -0.2588
vn 0.8660 0.0000 -0.5000
vn 0.7071 0.0000 -0.7071
vn 0.5000 0.0000 -0.8660
vn 0.2588 0.0000 -0.9659
vn 0.0000 0.0000 -1.0000
vn -0.2588 0.0000 -0.9659
vn -0.5000 0.0000 -0.8660
vn -0.7071 0.0000 -0.7071
vn -0.8660 0.0000 -0.5000
vn -0.9659 0.0000 -0.2588
vn -1.0000 0.0000 0.0000
vn -0.9659 0.0000 0.2588
vn -0.8660 0.0000 0.5000
vn -0.7071 0.0000 0.7071
vn -0.5000 0.0000 0.8660
vn -0.2588 0.0000 0.9659
usemtl material
s off
f 1/1/1 2/2/1 3/3/1
f 2/2/1 1/1/1 4/4/1
f 2/2/1 4/4/1 5/5/1
f 5/5/1 4/4/1 6/6/1
f 5/5/1 6/6/1 7/7/1
f 7/7/1 6/6/1 8/8/1
f 7/7/1 8/8/1 9/9/1
f 9/9/1 8/8/1 10/10/1
f 9/9/1 10/10/1 11/11/1
f 11/11/1 10/10/1 12/12/1
f 11/11/1 12/12/1 13/13/1
f 13/13/1 12/12/1 14/14/1
f 13/13/1 14/14/1 15/15/1
f 15/15/1 14/14/1 16/16/1
f 15/15/1 16/16/1 17/17/1
f 17/17/1 16/16/1 18/18/1
f 17/17/1 18/18/1 19/19/1
f 19/19/1 18/18/1 20/20/1
f 19/19/1 20/20/1 21/21/1
f 21/21/1 20/20/1 22/22/1
f 21/21/1 22/22/1 23/23/1
f 23/23/1 22/22/1 24/24/1
f 73/25/2 74/26/2 75/27/2
f 74/26/2 73/25/2 76/28/2
f 76/28/2 73/25/2 77/29/2
f 76/28/2 77/29/2 78/30/2
f 78/30/2 77/29/2 79/31/2
f 78/30/2 79/31/2 80/32/2
f 80/32/2 79/31/2 81/33/2
f 80/32/2 81/33/2 82/34/2
f 82/34/2 81/33/2 83/35/2
f 82/34/2 83/35/2 84/36/2
f 84/36/2 83/35/2 85/37/2
f 84/36/2 85/37/2 86/38/2
f 86/38/2 85/37/2 87/39/2
f 86/38/2 87/39/2 88/40/2
f 88/40/2 87/39/2 89/41/2
f 88/40/2 89/41/2 90/42/2
f 90/42/2 89/41/2 91/43/2
f 90/42/2 91/43/2 92/44/2
f 92/44/2 91/43/2 93/45/2
f 92/44/2 93/45/2 94/46/2
f 94/46/2 93/45/2 95/47/2
f 94/46/2 95/47/2 96/48/2
s 1
f 25/49/3 26/50/4 27/51/3
f 26/50/4 25/49/3 28/52/4
f 29/53/5 27/51/3 30/54/5
f 27/51/3 29/53/5 25/49/3
f 31/55/6 30/54/5 32/56/6
f 30/54/5 31/55/6 29/53/5
f 33/57/7 31/55/6 32/56/6
f 31/55/6 33/57/7 34/58/7
f 35/59/8 34/58/7 33/57/7
f 34/58/7 35/59/8 36/60/8
f 37/61/9 36/60/8 35/59/8
f 36/60/8 37/61/9 38/62/9
f 39/63/10 38/64/9 37/65/9
f 38/64/9 39/63/10 40/66/10
f 41/67/11 40/66/10 39/63/10
f 40/66/10 41/67/11 42/68/11
f 43/69/12 42/68/11 41/67/11
f 42/68/11 43/69/12 44/70/12
f 45/71/13 43/69/12 46/72/13
f 43/69/12 45/71/13 44/70/12
f 47/73/14 46/72/13 48/74/14
f 46/72/13 47/73/14 45/71/13
f 49/75/15 48/74/14 50/76/15
f 48/74/14 49/75/15 47/73/14
f 51/77/16 50/76/15 52/78/16
f 50/76/15 51/77/16 49/75/15
f 53/79/17 52/78/16 54/80/17
f 52/78/16 53/79/17 51/77/16
f 55/81/18 54/82/17 56/83/18
f 54/82/17 55/81/18 53/84/17
f 55/81/18 57/85/19 58/86/19
f 57/85/19 55/81/18 56/83/18
f 58/86/19 59/87/20 60/88/20
f 59/87/20 58/86/19 57/85/19
f 60/88/20 61/89/21 62/90/21
f 61/89/21 60/88/20 59/87/20
f 62/90/21 63/91/22 64/92/22
f 63/91/22 62/90/21 61/89/21
f 64/92/22 65/93/23 66/94/23
f 65/93/23 64/92/22 63/91/22
f 66/94/23 67/95/24 68/96/24
f 67/95/24 66/94/23 65/93/23
f 69/97/25 67/98/24 70/99/25
f 67/98/24 69/97/25 68/100/24
f 71/101/26 70/99/25 72/102/26
f 70/99/25 71/101/26 69/97/25
f 28/52/4 72/102/26 26/50/4
f 72/102/26 28/52/4 71/101/26
o instance_0_ID5
v 49.994381 0.000000 11.581768
v 51.807384 0.000000 -2.189384
v 49.994381 0.000000 -15.960537
v 44.678905 0.000000 -28.793209
v 36.223225 0.000000 -39.812870
v 25.203564 0.000000 -48.268551
v 12.370892 0.000000 -53.584026
v -1.400261 0.000000 -55.397030
v -15.171413 0.000000 -53.584026
v -28.004084 0.000000 -48.268551
v -39.023750 0.000000 -39.812870
v -47.479435 0.000000 -28.793209
v -52.794899 0.000000 -15.960537
v -54.607906 0.000000 -2.189384
v -52.794899 0.000000 11.581768
v -47.479435 0.000000 24.414438
v -39.023750 0.000000 35.434105
v -28.004084 0.000000 43.889790
v -15.171413 0.000000 49.205254
v -8.285835 0.000000 50.111759
v -1.400261 0.000000 51.018261
v 12.370892 0.000000 49.205254
v 25.203564 0.000000 43.889790
v 36.223225 0.000000 35.434105
v 44.678905 0.000000 24.414438
l 97 98
l 98 99
l 99 100
l 100 101
l 101 102
l 102 103
l 103 104
l 104 105
l 105 106
l 106 107
l 107 108
l 108 109
l 109 110
l 110 111
l 111 112
l 112 113
l 113 114
l 114 115
l 115 116
l 116 117
l 117 118
l 118 119
l 119 120
l 120 121
l 121 97
