# Blender v2.78 (sub 0) OBJ File: 'skybox.blend'
# www.blender.org
mtllib Skybox.mtl
o Cube.001
v 400.000061 399.999939 -400.000000
v 400.000244 399.999939 399.999817
v -399.999878 400.000061 400.000061
v -399.999939 400.000061 -400.000000
v 399.999756 -400.000061 -400.000183
v -400.000305 -399.999939 -399.999756
v -399.999878 -399.999939 400.000122
v 399.999939 -400.000061 399.999939
vt 0.2505 0.3328
vt 0.2505 0.0002
vt 0.5006 0.0002
vt 0.5006 0.3328
vt 0.2515 0.6671
vt 0.4997 0.6671
vt 0.4997 0.9990
vt 0.2515 0.9990
vt 0.2500 0.3332
vt 0.4996 0.3332
vt 0.4996 0.6665
vt 0.2500 0.6665
vt 0.5014 0.3338
vt 0.7485 0.3338
vt 0.7485 0.6663
vt 0.5014 0.6663
vt 0.7503 0.3337
vt 0.9995 0.3337
vt 0.9997 0.6663
vt 0.7503 0.6663
vt 0.2499 0.6664
vt 0.0003 0.6664
vt 0.0003 0.3339
vt 0.2499 0.3339
vn -0.0000 -1.0000 0.0000
vn 0.0000 1.0000 0.0000
vn 0.0000 0.0000 1.0000
vn 1.0000 -0.0000 -0.0000
vn -0.0000 -0.0000 -1.0000
vn -1.0000 0.0000 0.0000
usemtl Material.001
s 1
f 1/1/1 2/2/1 3/3/1 4/4/1
f 5/5/2 6/6/2 7/7/2 8/8/2
f 1/9/3 4/10/3 6/11/3 5/12/3
f 4/13/4 3/14/4 7/15/4 6/16/4
f 3/17/5 2/18/5 8/19/5 7/20/5
f 5/21/6 8/22/6 2/23/6 1/24/6
